{
	"asset":{
		"generator":"Khronos glTF Blender I/O v4.0.44",
		"version":"2.0"
	},
	"scene":0,
	"scenes":[
		{
			"name":"Scene",
			"nodes":[
				1
			]
		}
	],
	"nodes":[
		{
			"mesh":0,
			"name":"snow.1"
		},
		{
			"children":[
				0
			],
			"name":"RootNode.0"
		}
	],
	"materials":[
		{
			"doubleSided":true,
			"name":"Material.005",
			"pbrMetallicRoughness":{
				"baseColorFactor":[
					0.20843619108200073,
					0.4961628317832947,
					0.8012214303016663,
					1
				],
				"metallicFactor":0,
				"roughnessFactor":0.5
			}
		},
		{
			"doubleSided":true,
			"name":"Material.006",
			"pbrMetallicRoughness":{
				"baseColorFactor":[
					0.9474655389785767,
					0.9472649097442627,
					0.9472379684448242,
					1
				],
				"metallicFactor":0,
				"roughnessFactor":0.5
			}
		}
	],
	"meshes":[
		{
			"name":"Mesh_0.002",
			"primitives":[
				{
					"attributes":{
						"POSITION":0,
						"NORMAL":1,
						"TEXCOORD_0":2
					},
					"indices":3,
					"material":0
				},
				{
					"attributes":{
						"POSITION":4,
						"NORMAL":5,
						"TEXCOORD_0":6
					},
					"indices":7,
					"material":1
				}
			]
		}
	],
	"accessors":[
		{
			"bufferView":0,
			"componentType":5126,
			"count":7625,
			"max":[
				6.494401454925537,
				16.811519622802734,
				3.2080724239349365
			],
			"min":[
				-5.209754467010498,
				-6.198883056640625e-06,
				-2.251473903656006
			],
			"type":"VEC3"
		},
		{
			"bufferView":1,
			"componentType":5126,
			"count":7625,
			"type":"VEC3"
		},
		{
			"bufferView":2,
			"componentType":5126,
			"count":7625,
			"type":"VEC2"
		},
		{
			"bufferView":3,
			"componentType":5123,
			"count":33051,
			"type":"SCALAR"
		},
		{
			"bufferView":4,
			"componentType":5126,
			"count":6152,
			"max":[
				8.184334754943848,
				20.181928634643555,
				6.957361221313477
			],
			"min":[
				-8.28260326385498,
				11.072755813598633,
				-6.407379150390625
			],
			"type":"VEC3"
		},
		{
			"bufferView":5,
			"componentType":5126,
			"count":6152,
			"type":"VEC3"
		},
		{
			"bufferView":6,
			"componentType":5126,
			"count":6152,
			"type":"VEC2"
		},
		{
			"bufferView":7,
			"componentType":5123,
			"count":33627,
			"type":"SCALAR"
		}
	],
	"bufferViews":[
		{
			"buffer":0,
			"byteLength":91500,
			"byteOffset":0,
			"target":34962
		},
		{
			"buffer":0,
			"byteLength":91500,
			"byteOffset":91500,
			"target":34962
		},
		{
			"buffer":0,
			"byteLength":61000,
			"byteOffset":183000,
			"target":34962
		},
		{
			"buffer":0,
			"byteLength":66102,
			"byteOffset":244000,
			"target":34963
		},
		{
			"buffer":0,
			"byteLength":73824,
			"byteOffset":310104,
			"target":34962
		},
		{
			"buffer":0,
			"byteLength":73824,
			"byteOffset":383928,
			"target":34962
		},
		{
			"buffer":0,
			"byteLength":49216,
			"byteOffset":457752,
			"target":34962
		},
		{
			"buffer":0,
			"byteLength":67254,
			"byteOffset":506968,
			"target":34963
		}
	],
	"buffers":[
		{
			"byteLength":574224,
			"uri":"snow.bin"
		}
	]
}
