{
	"asset":{
		"generator":"Khronos glTF Blender I/O v4.0.44",
		"version":"2.0"
	},
	"scene":0,
	"scenes":[
		{
			"name":"Scene",
			"nodes":[
				1
			]
		}
	],
	"nodes":[
		{
			"mesh":0,
			"name":"sun.1"
		},
		{
			"children":[
				0
			],
			"name":"RootNode.0"
		}
	],
	"materials":[
		{
			"doubleSided":true,
			"name":"Material.007",
			"pbrMetallicRoughness":{
				"baseColorFactor":[
					0.8002041578292847,
					0.5946466326713562,
					0,
					1
				],
				"metallicFactor":0,
				"roughnessFactor":0.5
			}
		}
	],
	"meshes":[
		{
			"name":"Mesh_0.003",
			"primitives":[
				{
					"attributes":{
						"POSITION":0,
						"NORMAL":1,
						"TEXCOORD_0":2
					},
					"indices":3,
					"material":0
				}
			]
		}
	],
	"accessors":[
		{
			"bufferView":0,
			"componentType":5126,
			"count":3442,
			"max":[
				13.660923957824707,
				27.321857452392578,
				7.949829578399658
			],
			"min":[
				-13.660929679870605,
				0,
				-7.949829578399658
			],
			"type":"VEC3"
		},
		{
			"bufferView":1,
			"componentType":5126,
			"count":3442,
			"type":"VEC3"
		},
		{
			"bufferView":2,
			"componentType":5126,
			"count":3442,
			"type":"VEC2"
		},
		{
			"bufferView":3,
			"componentType":5123,
			"count":16680,
			"type":"SCALAR"
		}
	],
	"bufferViews":[
		{
			"buffer":0,
			"byteLength":41304,
			"byteOffset":0,
			"target":34962
		},
		{
			"buffer":0,
			"byteLength":41304,
			"byteOffset":41304,
			"target":34962
		},
		{
			"buffer":0,
			"byteLength":27536,
			"byteOffset":82608,
			"target":34962
		},
		{
			"buffer":0,
			"byteLength":33360,
			"byteOffset":110144,
			"target":34963
		}
	],
	"buffers":[
		{
			"byteLength":143504,
			"uri":"sun.bin"
		}
	]
}
