{
	"asset":{
		"generator":"Khronos glTF Blender I/O v4.0.44",
		"version":"2.0"
	},
	"scene":0,
	"scenes":[
		{
			"name":"Scene",
			"nodes":[
				1
			]
		}
	],
	"nodes":[
		{
			"mesh":0,
			"name":"rain.1"
		},
		{
			"children":[
				0
			],
			"name":"RootNode.0"
		}
	],
	"materials":[
		{
			"doubleSided":true,
			"name":"Material.003",
			"pbrMetallicRoughness":{
				"baseColorFactor":[
					0.13019755482673645,
					0.5902400016784668,
					0.8005127906799316,
					1
				],
				"metallicFactor":0,
				"roughnessFactor":0.5
			}
		},
		{
			"doubleSided":true,
			"name":"Material.004",
			"pbrMetallicRoughness":{
				"baseColorFactor":[
					0.9474655389785767,
					0.9472649097442627,
					0.9472379684448242,
					1
				],
				"metallicFactor":0,
				"roughnessFactor":0.5
			}
		}
	],
	"meshes":[
		{
			"name":"Mesh_0.001",
			"primitives":[
				{
					"attributes":{
						"POSITION":0,
						"NORMAL":1,
						"TEXCOORD_0":2
					},
					"indices":3,
					"material":0
				},
				{
					"attributes":{
						"POSITION":4,
						"NORMAL":5,
						"TEXCOORD_0":6
					},
					"indices":7,
					"material":1
				}
			]
		}
	],
	"accessors":[
		{
			"bufferView":0,
			"componentType":5126,
			"count":1002,
			"max":[
				4.5199737548828125,
				5.384915351867676,
				3.171509265899658
			],
			"min":[
				-6.329233169555664,
				0,
				-3.3152143955230713
			],
			"type":"VEC3"
		},
		{
			"bufferView":1,
			"componentType":5126,
			"count":1002,
			"type":"VEC3"
		},
		{
			"bufferView":2,
			"componentType":5126,
			"count":1002,
			"type":"VEC2"
		},
		{
			"bufferView":3,
			"componentType":5123,
			"count":5400,
			"type":"SCALAR"
		},
		{
			"bufferView":4,
			"componentType":5126,
			"count":6151,
			"max":[
				7.783692836761475,
				15.149101257324219,
				6.957361221313477
			],
			"min":[
				-8.683245658874512,
				6.039929389953613,
				-6.407379150390625
			],
			"type":"VEC3"
		},
		{
			"bufferView":5,
			"componentType":5126,
			"count":6151,
			"type":"VEC3"
		},
		{
			"bufferView":6,
			"componentType":5126,
			"count":6151,
			"type":"VEC2"
		},
		{
			"bufferView":7,
			"componentType":5123,
			"count":33630,
			"type":"SCALAR"
		}
	],
	"bufferViews":[
		{
			"buffer":0,
			"byteLength":12024,
			"byteOffset":0,
			"target":34962
		},
		{
			"buffer":0,
			"byteLength":12024,
			"byteOffset":12024,
			"target":34962
		},
		{
			"buffer":0,
			"byteLength":8016,
			"byteOffset":24048,
			"target":34962
		},
		{
			"buffer":0,
			"byteLength":10800,
			"byteOffset":32064,
			"target":34963
		},
		{
			"buffer":0,
			"byteLength":73812,
			"byteOffset":42864,
			"target":34962
		},
		{
			"buffer":0,
			"byteLength":73812,
			"byteOffset":116676,
			"target":34962
		},
		{
			"buffer":0,
			"byteLength":49208,
			"byteOffset":190488,
			"target":34962
		},
		{
			"buffer":0,
			"byteLength":67260,
			"byteOffset":239696,
			"target":34963
		}
	],
	"buffers":[
		{
			"byteLength":306956,
			"uri":"rain.bin"
		}
	]
}
