{
	"asset":{
		"generator":"Khronos glTF Blender I/O v4.0.44",
		"version":"2.0"
	},
	"scene":0,
	"scenes":[
		{
			"name":"Scene",
			"nodes":[
				1
			]
		}
	],
	"nodes":[
		{
			"mesh":0,
			"name":"partial_sun.1"
		},
		{
			"children":[
				0
			],
			"name":"RootNode.0"
		}
	],
	"materials":[
		{
			"doubleSided":true,
			"name":"Material.001",
			"pbrMetallicRoughness":{
				"baseColorFactor":[
					0.8000004291534424,
					0.5219419002532959,
					0,
					1
				],
				"metallicFactor":0,
				"roughnessFactor":0.5
			}
		},
		{
			"doubleSided":true,
			"name":"Material.002",
			"pbrMetallicRoughness":{
				"baseColorFactor":[
					0.9474660158157349,
					0.9472649097442627,
					0.9472379684448242,
					1
				],
				"metallicFactor":0,
				"roughnessFactor":0.5
			}
		}
	],
	"meshes":[
		{
			"name":"Mesh_0",
			"primitives":[
				{
					"attributes":{
						"POSITION":0,
						"NORMAL":1,
						"TEXCOORD_0":2
					},
					"indices":3,
					"material":0
				},
				{
					"attributes":{
						"POSITION":4,
						"NORMAL":5,
						"TEXCOORD_0":6
					},
					"indices":7,
					"material":1
				}
			]
		}
	],
	"accessors":[
		{
			"bufferView":0,
			"componentType":5126,
			"count":2960,
			"max":[
				5.459070205688477,
				12.695844650268555,
				1.2978301048278809
			],
			"min":[
				-9.692475318908691,
				1.0876569747924805,
				-4.721159934997559
			],
			"type":"VEC3"
		},
		{
			"bufferView":1,
			"componentType":5126,
			"count":2960,
			"type":"VEC3"
		},
		{
			"bufferView":2,
			"componentType":5126,
			"count":2960,
			"type":"VEC2"
		},
		{
			"bufferView":3,
			"componentType":5123,
			"count":14457,
			"type":"SCALAR"
		},
		{
			"bufferView":4,
			"componentType":5126,
			"count":5916,
			"max":[
				7.783692836761475,
				9.108877182006836,
				6.957361221313477
			],
			"min":[
				-8.683245658874512,
				-0.000295000005280599,
				-6.407379150390625
			],
			"type":"VEC3"
		},
		{
			"bufferView":5,
			"componentType":5126,
			"count":5916,
			"type":"VEC3"
		},
		{
			"bufferView":6,
			"componentType":5126,
			"count":5916,
			"type":"VEC2"
		},
		{
			"bufferView":7,
			"componentType":5123,
			"count":32046,
			"type":"SCALAR"
		}
	],
	"bufferViews":[
		{
			"buffer":0,
			"byteLength":35520,
			"byteOffset":0,
			"target":34962
		},
		{
			"buffer":0,
			"byteLength":35520,
			"byteOffset":35520,
			"target":34962
		},
		{
			"buffer":0,
			"byteLength":23680,
			"byteOffset":71040,
			"target":34962
		},
		{
			"buffer":0,
			"byteLength":28914,
			"byteOffset":94720,
			"target":34963
		},
		{
			"buffer":0,
			"byteLength":70992,
			"byteOffset":123636,
			"target":34962
		},
		{
			"buffer":0,
			"byteLength":70992,
			"byteOffset":194628,
			"target":34962
		},
		{
			"buffer":0,
			"byteLength":47328,
			"byteOffset":265620,
			"target":34962
		},
		{
			"buffer":0,
			"byteLength":64092,
			"byteOffset":312948,
			"target":34963
		}
	],
	"buffers":[
		{
			"byteLength":377040,
			"uri":"untitled.bin"
		}
	]
}
