{
	"asset":{
		"generator":"Khronos glTF Blender I/O v4.0.44",
		"version":"2.0"
	},
	"scene":0,
	"scenes":[
		{
			"name":"Scene",
			"nodes":[
				1
			]
		}
	],
	"nodes":[
		{
			"mesh":0,
			"name":"Cloud.1"
		},
		{
			"children":[
				0
			],
			"name":"RootNode.0",
			"scale":[
				0.9386089444160461,
				0.9386089444160461,
				0.9386089444160461
			]
		}
	],
	"materials":[
		{
			"doubleSided":true,
			"name":"Material.002",
			"pbrMetallicRoughness":{
				"baseColorFactor":[
					1,
					1,
					0.9999275803565979,
					1
				],
				"metallicFactor":0,
				"roughnessFactor":0.5
			}
		}
	],
	"meshes":[
		{
			"name":"Mesh_0",
			"primitives":[
				{
					"attributes":{
						"POSITION":0,
						"NORMAL":1,
						"TEXCOORD_0":2
					},
					"indices":3,
					"material":0
				}
			]
		}
	],
	"accessors":[
		{
			"bufferView":0,
			"componentType":5126,
			"count":1663,
			"max":[
				3.959845542907715,
				4.953811168670654,
				2.4825565814971924
			],
			"min":[
				-4.08982515335083,
				0,
				-2.428657054901123
			],
			"type":"VEC3"
		},
		{
			"bufferView":1,
			"componentType":5126,
			"count":1663,
			"type":"VEC3"
		},
		{
			"bufferView":2,
			"componentType":5126,
			"count":1663,
			"type":"VEC2"
		},
		{
			"bufferView":3,
			"componentType":5123,
			"count":9126,
			"type":"SCALAR"
		}
	],
	"bufferViews":[
		{
			"buffer":0,
			"byteLength":19956,
			"byteOffset":0,
			"target":34962
		},
		{
			"buffer":0,
			"byteLength":19956,
			"byteOffset":19956,
			"target":34962
		},
		{
			"buffer":0,
			"byteLength":13304,
			"byteOffset":39912,
			"target":34962
		},
		{
			"buffer":0,
			"byteLength":18252,
			"byteOffset":53216,
			"target":34963
		}
	],
	"buffers":[
		{
			"byteLength":71468,
			"uri":"cl.bin"
		}
	]
}
